# xmcd
#
# Track frame offsets:
#	150
#	13536
#	21509
#	40533
#	59944
#	81104
#	101822
#	122494
#	136402
#	150355
#	169748
#	182401
#	195437
#	208428
#	221895
#	234716
#	250005
#	262279
#	277452
#	291990
#	305534
#	316772
#	330236
#
# Disc length: 4560 seconds
#
# Revision: 1
# Processed by: cddbd v1.5.1PL2 Copyright (c) Steve Scherf et al.
# Submitted via: audiograbber 1.83.01
#
DISCID=5b11ce17
DTITLE=Bix Beiderbecke - Bix Restored volume 3 disc 9
DYEAR=1928
DGENRE=Jazz
TTITLE0=Paul Whiteman and his Orchestra - You Took Advantage of Me
TTITLE1=Paul Whiteman and his Orchestra - My Ohio Home
TTITLE2=Paul Whiteman and his Orchestra - La Paloma (The Dove) (take 2)
TTITLE3=Paul Whiteman and his Orchestra - La Golondrina
TTITLE4=Paul Whiteman and his Orchestra - My Melancholy Baby
TTITLE5=Paul Whiteman and his Orchestra - The Man I Love (take 2)
TTITLE6=Paul Whiteman and his Orchestra - The Man I Love (take 4)
TTITLE7=Paul Whiteman and his Orchestra - C-O-N-S-T-A-N-T-I-N-O-P-L-E (take 2)
TTITLE8=Paul Whiteman and his Orchestra - C-O-N-S-T-A-N-T-I-N-O-P-L-E (take 3)
TTITLE9=Paul Whiteman and his Orchestra - La Paloma (The Dove) (take 6)
TTITLE10=Paul Whiteman and his Orchestra - Is It Gonna Be Long?
TTITLE11=Paul Whiteman and his Orchestra - Oh! You Have No Idea
TTITLE12=Paul Whiteman and his Orchestra - Blue Night
TTITLE13=Paul Whiteman and his Orchestra - Felix the Cat
TTITLE14=Paul Whiteman and his Orchestra - 'Tain't So, Honey, 'Tain't So
TTITLE15=Paul Whiteman and his Orchestra - Japanese Mammy
TTITLE16=Paul Whiteman and his Orchestra - I'd Rather Cry Over You
TTITLE17=Paul Whiteman and his Orchestra - Chiquita
TTITLE18=Paul Whiteman and his Orchestra - I'm On The Crest Of A Wave
TTITLE19=Paul Whiteman and his Orchestra - That's My Weakness Now
TTITLE20=Paul Whiteman and his Orchestra - Georgie Porgie
TTITLE21=Paul Whiteman and his Orchestra - Because My Baby Don't Mean "Maybe" N
TTITLE21=ow
TTITLE22=Paul Whiteman and his Orchestra - Out O'Town Gal
EXTD=
EXTT0=
EXTT1=
EXTT2=
EXTT3=
EXTT4=
EXTT5=
EXTT6=
EXTT7=
EXTT8=
EXTT9=
EXTT10=
EXTT11=
EXTT12=
EXTT13=
EXTT14=
EXTT15=
EXTT16=
EXTT17=
EXTT18=
EXTT19=
EXTT20=
EXTT21=
EXTT22=
PLAYORDER=
